<svg width="149" height="149" viewBox="0 0 149 149" fill="none" xmlns="http://www.w3.org/2000/svg">
<rect x="0.321777" y="0.321899" width="147.773" height="147.76" rx="34" fill="white"/>
<rect x="0.321777" y="0.321899" width="147.773" height="147.76" rx="34" stroke="#151515" stroke-opacity="0.5" stroke-width="0.643836" stroke-miterlimit="1.41" stroke-linejoin="round"/>
<path d="M119.676 44.0623C119.637 35.5947 112.764 28.7343 104.283 28.7343C102.179 28.7343 100.114 29.1394 98.3373 29.9235L42.2393 53.7452C34.2421 57.1296 28.6232 65.0484 28.6232 74.2608V104.407C28.6232 112.914 35.5227 119.8 44.0165 119.8C46.1726 119.8 48.2242 119.356 50.0928 118.546L105.956 94.8287C114.005 91.4704 119.676 83.5255 119.676 74.2608V44.0623Z" fill="black"/>
<path d="M67.93 86.4002C67.1982 86.4002 66.6102 85.8122 66.6102 85.0804V57.0903C66.6102 56.3585 67.1982 55.7705 67.93 55.7705C68.6617 55.7705 69.2498 56.3585 69.2498 57.0903V85.0674C69.2498 85.7991 68.6617 86.4002 67.93 86.4002Z" fill="white"/>
<path d="M78.4361 85.0674V63.4671C78.4361 62.7354 77.8481 62.1473 77.1032 62.1473C76.3715 62.1473 75.7834 62.7354 75.7834 63.4671V85.0674C75.7834 85.7991 76.3715 86.3872 77.1032 86.3872C77.8481 86.4002 78.4361 85.7991 78.4361 85.0674Z" fill="white"/>
<path d="M78.4361 57.1687V57.0903C78.4361 56.3585 77.8481 55.7705 77.1032 55.7705C76.3715 55.7705 75.7834 56.3585 75.7834 57.0903V57.1687C75.7834 57.9005 76.3715 58.4885 77.1032 58.4885C77.8481 58.4885 78.4361 57.9005 78.4361 57.1687Z" fill="white"/>
<path d="M59.6845 83.0681C60.2072 82.5454 60.2072 81.7091 59.6845 81.1995C59.1618 80.6768 58.3255 80.6768 57.8159 81.1995C54.0002 85.0151 47.7802 85.0151 43.9645 81.1995C40.1489 77.3838 40.1489 71.1638 43.9645 67.3481C45.8201 65.4926 48.2768 64.4733 50.8902 64.4733C53.5037 64.4733 55.9603 65.4926 57.8159 67.3481C58.3386 67.8708 59.1749 67.8708 59.6845 67.3481C60.2072 66.8254 60.2072 65.9891 59.6845 65.4795C57.3324 63.1274 54.2093 61.8337 50.8902 61.8337C47.5711 61.8337 44.448 63.1274 42.0959 65.4795C37.248 70.3275 37.248 78.2201 42.0959 83.0812C44.5264 85.5117 47.7018 86.7139 50.8902 86.7139C54.0656 86.7139 57.254 85.4986 59.6845 83.0681Z" fill="white"/>
<path d="M87.6224 91.4573V74.2738C87.6224 68.877 92.013 64.4733 97.4229 64.4733C102.82 64.4733 107.223 68.8639 107.223 74.2738C107.223 79.6706 102.833 84.0743 97.4229 84.0743C94.3128 84.0743 92.1959 82.8851 92.1829 82.8721C91.5556 82.5062 90.7455 82.7153 90.3665 83.3425C90.0006 83.9697 90.2097 84.7799 90.8369 85.1589C90.9415 85.2242 93.5419 86.7139 97.4098 86.7139C104.27 86.7139 109.85 81.1341 109.85 74.2738C109.85 67.4135 104.27 61.8337 97.4098 61.8337C90.5495 61.8337 84.9697 67.4135 84.9697 74.2738V91.4573C84.9697 92.1891 85.5577 92.7771 86.2895 92.7771C87.0213 92.7771 87.6224 92.176 87.6224 91.4573Z" fill="white"/>
<path d="M120.695 43.3567C120.656 34.7061 113.626 27.702 104.975 27.702C102.819 27.702 100.716 28.1071 98.9122 28.9173L41.6121 53.2486C33.445 56.6984 27.7085 64.8001 27.7085 74.2086V104.982C27.7085 113.659 34.7518 120.702 43.4285 120.702C45.6368 120.702 47.7276 120.245 49.6354 119.421L106.687 95.1946C114.907 91.7579 120.708 83.6432 120.708 74.1955L120.695 43.3567Z" fill="#FF4E19"/>
<path d="M67.8519 86.5963C67.1071 86.5963 66.4929 85.9952 66.4929 85.2373V56.6591C66.4929 55.9142 67.094 55.3001 67.8519 55.3001C68.5968 55.3001 69.2109 55.9012 69.2109 56.6591V85.2373C69.1979 85.9821 68.5968 86.5963 67.8519 86.5963Z" fill="white"/>
<path d="M78.5798 85.2373V63.1797C78.5798 62.4349 77.9787 61.8338 77.2208 61.8338C76.476 61.8338 75.8749 62.4349 75.8749 63.1797V85.2373C75.8749 85.9822 76.476 86.5963 77.2208 86.5963C77.9657 86.5963 78.5798 85.9822 78.5798 85.2373Z" fill="white"/>
<path d="M78.5798 56.7376V56.6591C78.5798 55.9143 77.9787 55.3001 77.2208 55.3001C76.476 55.3001 75.8749 55.9012 75.8749 56.6591V56.7376C75.8749 57.4824 76.476 58.0966 77.2208 58.0966C77.9657 58.0966 78.5798 57.4824 78.5798 56.7376Z" fill="white"/>
<path d="M59.4232 83.1988C59.9459 82.6761 59.9459 81.8137 59.4232 81.291C58.9005 80.7683 58.038 80.7683 57.5153 81.291C53.6082 85.1851 47.2706 85.1851 43.3634 81.291C39.4694 77.3839 39.4694 71.0463 43.3634 67.1391C45.2582 65.2444 47.7671 64.2121 50.4329 64.2121C53.1117 64.2121 55.6206 65.2574 57.5023 67.1391C58.025 67.6749 58.8874 67.6749 59.4101 67.1391C59.9328 66.6164 59.9328 65.754 59.4101 65.2313C57.0057 62.8269 53.8173 61.5071 50.4198 61.5071C47.0223 61.5071 43.8339 62.8269 41.4295 65.2313C36.477 70.1838 36.477 78.2463 41.4295 83.1988C43.9123 85.6816 47.153 86.91 50.4198 86.91C53.6997 86.91 56.9404 85.6686 59.4232 83.1988Z" fill="white"/>
<path d="M87.9491 91.7579V74.2085C87.9491 68.6941 92.4312 64.2121 97.9456 64.2121C103.46 64.2121 107.942 68.6941 107.942 74.2085C107.942 79.7229 103.46 84.205 97.9456 84.205C94.7702 84.205 92.6141 82.9898 92.6011 82.9767C91.9608 82.5977 91.1245 82.8068 90.7455 83.4602C90.3666 84.1005 90.5887 84.9368 91.229 85.3157C91.3466 85.3811 93.9993 86.91 97.9456 86.91C104.95 86.91 110.647 81.2126 110.647 74.2085C110.647 67.2045 104.95 61.5071 97.9456 61.5071C90.9415 61.5071 85.2442 67.2045 85.2442 74.2085V91.7449C85.2442 92.4897 85.8453 93.1039 86.6032 93.1039C87.348 93.1039 87.9491 92.5028 87.9491 91.7579Z" fill="white"/>
</svg>
