<svg width="149" height="149" viewBox="0 0 149 149" fill="none" xmlns="http://www.w3.org/2000/svg">
<rect x="0.321777" y="0.321915" width="147.773" height="147.76" rx="34" fill="white"/>
<rect x="0.321777" y="0.321915" width="147.773" height="147.76" rx="34" stroke="#151515" stroke-opacity="0.5" stroke-width="0.643836" stroke-miterlimit="1.41" stroke-linejoin="round"/>
<path d="M86.1554 75.3311C85.5199 74.7897 84.803 74.3519 84.031 74.0341C83.2825 73.7039 82.4849 73.4988 81.67 73.4271C82.5334 73.293 83.3447 72.9286 84.0184 72.3721C84.7264 71.8158 85.2713 71.0788 85.5954 70.2387C85.9327 69.3274 86.0981 68.3615 86.0832 67.3899C86.0832 65.0873 85.2883 63.3874 83.6986 62.2903C82.109 61.1932 79.9942 60.6476 77.3544 60.6536H56.918V87.7504H78.3985C80.5578 87.7504 82.3643 87.4584 83.8179 86.8743C85.2715 86.2902 86.3312 85.4273 86.9972 84.2857C87.6656 83.1452 87.9998 81.7771 87.9998 80.1814C88.0112 79.2245 87.8515 78.2732 87.5283 77.3724C87.2545 76.5846 86.7845 75.8796 86.1626 75.3239M63.3146 65.7497H75.2788C76.2326 65.7497 76.9798 65.8508 77.5206 66.0531C78.0473 66.2444 78.4992 66.5988 78.8104 67.0648C79.1288 67.5313 79.2965 68.0842 79.291 68.649C79.291 69.6606 79.0181 70.4109 78.4726 70.8999C77.927 71.3888 77.0136 71.6333 75.7322 71.6333H63.3074L63.3146 65.7497ZM80.6566 81.4387C80.2555 81.8737 79.7374 82.1836 79.1644 82.3311C78.3466 82.5385 77.5041 82.6321 76.6607 82.6093H63.3074V76.6805H76.7962C78.2919 76.6805 79.3993 76.9214 80.1183 77.4031C80.8372 77.8848 81.1985 78.6351 81.2021 79.6539C81.2021 80.4391 81.0215 81.0377 80.6602 81.4495" fill="#040006"/>
<path d="M121.042 60.6464L111.514 81.2996L102.189 60.6464H93.7588V87.7577H99.9639V69.6661L108.192 87.7577H114.616L123.081 69.6661V87.7577H129.319V60.6464H121.042Z" fill="#040006"/>
<path d="M34.0917 71.9512V77.0689H44.2331C44.0906 77.8228 43.8316 78.5498 43.4654 79.224C42.7801 80.4379 41.6902 81.3568 40.1957 81.9806C38.8553 82.5388 37.1645 82.8242 35.1286 82.8839C33.1686 82.8495 31.4814 82.5515 30.0705 81.9806C28.5784 81.3713 27.4867 80.4644 26.7954 79.2601C26.1042 78.0558 25.7585 76.3764 25.7585 74.2219C25.7585 72.0759 26.1012 70.3953 26.7864 69.1801C27.4717 67.965 28.5621 67.0461 30.0579 66.4235C31.3983 65.8653 33.0891 65.5799 35.125 65.5202C37.0844 65.554 38.7674 65.855 40.174 66.4235C41.1246 66.7913 41.9817 67.3657 42.6832 68.1053H50.1691C49.9891 67.6101 49.7767 67.1273 49.5332 66.6601C48.4494 64.5971 46.6929 63.0093 44.2638 61.8965C41.8347 60.7837 39.0107 60.2249 35.7916 60.2201C35.5658 60.2201 35.3454 60.2201 35.125 60.2201C31.9276 60.2707 29.1456 60.7904 26.7792 61.7791C24.2875 62.8244 22.3847 64.3557 21.0708 66.3729C19.7569 68.3901 19.0993 71.0064 19.0981 74.2219C19.0981 77.1797 19.6401 79.6894 20.724 81.7512C21.8078 83.813 23.5643 85.4008 25.9934 86.5148C28.4224 87.6276 31.2423 88.184 34.453 88.184C34.6788 88.184 34.8992 88.184 35.1196 88.184C38.317 88.1334 41.0989 87.6137 43.4654 86.625C45.9547 85.5785 47.8575 84.0472 49.1738 82.0312C50.4901 80.0152 51.1476 77.3989 51.1464 74.1822C51.147 73.4371 51.109 72.6924 51.0326 71.9512H34.0917Z" fill="#040006"/>
</svg>
