<svg width="149" height="149" viewBox="0 0 149 149" fill="none" xmlns="http://www.w3.org/2000/svg">
<rect x="0.321777" y="0.32193" width="147.773" height="147.76" rx="34" fill="white"/>
<rect x="0.321777" y="0.32193" width="147.773" height="147.76" rx="34" stroke="#151515" stroke-opacity="0.5" stroke-width="0.643836" stroke-miterlimit="1.41" stroke-linejoin="round"/>
<path d="M74.2251 38.8991C45.5006 38.8991 22.2198 53.7947 22.2198 72.1706C22.2198 90.5465 45.5043 106.881 74.2251 106.881C102.946 106.881 126.23 90.5428 126.23 72.1706C126.23 53.7984 102.946 38.8991 74.2251 38.8991Z" fill="#00BCFF"/>
<path d="M57.2996 61.8846C57.2738 61.9363 56.7645 62.4603 57.0966 62.8848C57.9012 63.9108 60.385 64.5013 62.8984 63.9366C64.3931 63.6007 66.3123 62.0765 68.1687 60.6039C70.1801 59.0059 72.1767 57.4041 74.1845 56.7693C76.3103 56.0939 77.6722 56.3818 78.5727 56.6549C79.5581 56.9501 80.7207 57.5997 82.5734 58.9874C86.0611 61.6078 100.078 73.8461 102.503 75.9608C104.452 75.0788 113.749 71.3253 125.529 68.7271C124.503 62.4456 120.728 56.4556 114.93 51.7537C106.851 55.1454 96.3212 57.179 86.6664 52.466C86.6184 52.4475 81.3924 49.9748 76.2402 50.0966C68.582 50.2737 65.2641 53.5879 61.7543 57.0978L57.307 61.892L57.2996 61.8846Z" fill="white"/>
<path d="M101.927 77.2932C101.761 77.1456 85.4411 62.8664 81.743 60.0873C79.6024 58.4818 78.414 58.0722 77.1629 57.9135C76.5133 57.8286 75.6128 57.9504 74.9854 58.1238C73.2655 58.5926 71.0179 60.0947 69.0212 61.678C66.9545 63.324 65.0058 64.8741 63.1937 65.2801C60.8833 65.7968 58.0599 65.1878 56.7719 64.3168C56.2515 63.9662 55.8824 63.5602 55.7053 63.1505C55.2292 62.047 56.1076 61.165 56.2515 61.0173L60.7541 56.1456C61.2782 55.6252 61.806 55.1012 62.3448 54.5845C60.8907 54.7727 59.5473 55.1455 58.2408 55.5071C56.6095 55.9648 55.0373 56.4003 53.4503 56.4003C52.7859 56.4003 49.2355 55.8172 48.5601 55.6363C44.4819 54.5217 39.8649 53.433 34.5208 50.9381C28.1175 55.7027 23.947 61.5562 22.7106 68.1219C23.6296 68.3655 26.0396 68.9154 26.6633 69.0519C41.1529 72.2739 45.6666 75.5918 46.486 76.2857C47.3717 75.3003 48.6524 74.6765 50.077 74.6765C51.6824 74.6765 53.1255 75.4848 54.0039 76.7285C54.8343 76.0716 55.9784 75.5106 57.4583 75.5143C58.13 75.5143 58.8276 75.6398 59.5325 75.876C61.1675 76.437 62.0126 77.5257 62.4481 78.5111C62.9944 78.2639 63.6698 78.0793 64.4632 78.083C65.2457 78.083 66.0576 78.2602 66.8733 78.6145C69.5453 79.7623 69.9587 82.3864 69.7188 84.3646C69.9107 84.3424 70.1026 84.335 70.2945 84.335C73.4611 84.335 76.0372 86.9111 76.0372 90.0814C76.0372 91.0631 75.7863 91.9858 75.3507 92.7941C76.2144 93.2776 78.4103 94.3737 80.3405 94.1301C81.8796 93.9345 82.4664 93.4104 82.6731 93.1115C82.817 92.9085 82.9683 92.6686 82.8281 92.4988L78.7388 87.9593C78.7388 87.9593 78.0671 87.3208 78.2885 87.0772C78.5174 86.8262 78.9344 87.1879 79.2297 87.4315C81.3112 89.1698 83.8504 91.7902 83.8504 91.7902C83.8947 91.8197 84.0608 92.1519 85.0019 92.318C85.8101 92.4619 87.2421 92.3807 88.2349 91.5651C88.4822 91.3584 88.7332 91.1037 88.9472 90.838C88.9288 90.8528 88.914 90.8675 88.8992 90.8749C89.9474 89.5352 88.7811 88.1844 88.7811 88.1844L84.0091 82.8256C84.0091 82.8256 83.3263 82.1944 83.5588 81.9398C83.7655 81.7183 84.2047 82.0505 84.5036 82.3015C86.0131 83.5637 88.15 85.708 90.1947 87.712C90.5969 88.0036 92.3943 89.1145 94.7748 87.5533C96.2215 86.6048 96.5094 85.4385 96.4688 84.5639C96.3692 83.4013 95.4613 82.5709 95.4613 82.5709L88.9435 76.0162C88.9435 76.0162 88.2534 75.4294 88.4969 75.1305C88.6962 74.8795 89.1428 75.2412 89.4381 75.4848C91.5122 77.2231 97.1368 82.379 97.1368 82.379C97.218 82.4343 99.1593 83.8183 101.562 82.2904C102.422 81.7405 102.968 80.9138 103.016 79.9505C103.097 78.2823 101.924 77.2932 101.924 77.2932H101.927Z" fill="white"/>
<path d="M70.3019 85.601C69.2907 85.5899 68.1835 86.1915 68.0395 86.103C67.9583 86.0513 68.1023 85.6453 68.1945 85.4091C68.2942 85.1766 69.6228 81.1722 66.3787 79.7808C63.8949 78.7142 62.3743 79.9137 61.8539 80.4562C61.7174 80.5965 61.6547 80.5854 61.6399 80.4082C61.5882 79.6849 61.2671 77.7362 59.1228 77.0792C56.0596 76.1418 54.0888 78.2787 53.5905 79.0538C53.3654 77.3081 51.8891 75.9536 50.0844 75.9499C48.1209 75.9499 46.5266 77.5369 46.5229 79.504C46.5229 81.4675 48.1136 83.0618 50.0807 83.0618C51.0366 83.0618 51.9002 82.6817 52.5387 82.069C52.5608 82.0875 52.5682 82.1207 52.5571 82.1871C52.4058 83.0692 52.1327 86.2616 55.4801 87.5645C56.8236 88.0848 57.964 87.6973 58.9088 87.0367C59.1893 86.8374 59.2373 86.9223 59.1967 87.188C59.0749 88.011 59.2299 89.7678 61.6953 90.768C63.5701 91.5319 64.681 90.7532 65.4118 90.0778C65.7292 89.7899 65.814 89.8379 65.8325 90.2845C65.9211 92.6613 67.8956 94.5509 70.2945 94.5546C72.7673 94.5546 74.7713 92.5579 74.7713 90.0889C74.7713 87.6161 72.771 85.6379 70.2982 85.6121L70.3019 85.601Z" fill="white"/>
<path d="M74.214 37.5222C44.9433 37.5222 21.2159 53.0895 21.2159 72.1851C21.2159 72.6797 21.2085 74.0415 21.2085 74.215C21.2085 94.4768 41.9464 110.882 74.2066 110.882C106.467 110.882 127.208 94.4768 127.208 74.2187V72.1851C127.208 53.0895 103.481 37.5222 74.214 37.5222ZM124.821 68.3431C113.302 70.9044 104.71 74.6209 102.558 75.5805C97.5317 71.1923 85.9135 61.0909 82.7653 58.7289C80.968 57.3744 79.739 56.6621 78.6613 56.341C78.1778 56.1934 77.5098 56.0273 76.6499 56.0273C75.849 56.0273 74.9891 56.1712 74.0922 56.4591C72.0587 57.105 70.0325 58.7141 68.0727 60.2716L67.9731 60.3528C66.1462 61.8032 64.2603 63.3053 62.832 63.6227C62.2083 63.763 61.5661 63.8368 60.9276 63.8368C59.3258 63.8368 57.8902 63.3718 57.3513 62.6853C57.2627 62.5709 57.3218 62.3864 57.5285 62.1243L57.5543 62.0874L61.9794 57.3227C65.445 53.8572 68.7149 50.5872 76.2476 50.4138C76.3731 50.4101 76.4986 50.4064 76.624 50.4064C81.3112 50.4101 85.9984 52.5064 86.5261 52.7537C90.9217 54.898 95.4613 55.9867 100.019 55.9904C104.762 55.9904 109.656 54.8205 114.8 52.4547C120.174 56.9721 123.736 62.4159 124.821 68.3468V68.3431ZM74.2214 39.5669C89.7592 39.5669 103.658 44.0215 113.007 51.0338C108.489 52.9899 104.182 53.9753 100.027 53.9753C95.775 53.9716 91.527 52.9493 87.4008 50.9379C87.1831 50.8345 82.0087 48.395 76.624 48.3913C76.4838 48.3913 76.3399 48.3913 76.1996 48.395C69.8738 48.5426 66.3086 50.7902 63.9133 52.7574C61.5845 52.8164 59.5731 53.3774 57.7831 53.8756C56.1851 54.3185 54.8084 54.7024 53.465 54.7024C52.9114 54.7024 51.9149 54.6507 51.8264 54.647C50.2837 54.599 42.5332 52.6983 36.344 50.3621C45.6703 43.7337 59.1856 39.5632 74.2251 39.5632L74.2214 39.5669ZM34.506 51.7498C40.9684 54.3923 48.8111 56.437 51.2912 56.5957C51.9814 56.64 52.7195 56.7212 53.4576 56.7212C55.1037 56.7212 56.746 56.2598 58.333 55.8169C59.2705 55.5549 60.3075 55.267 61.3963 55.0604C61.1047 55.3445 60.8132 55.6361 60.5216 55.9277L56.03 60.7883C55.6757 61.1463 54.9081 62.0985 55.4137 63.2721C55.613 63.7445 56.0227 64.1985 56.5947 64.5823C57.665 65.302 59.5842 65.7928 61.3631 65.7928C62.0385 65.7928 62.6807 65.7264 63.2638 65.5935C65.1497 65.1728 67.1242 63.5969 69.2168 61.9324C70.885 60.6074 73.2544 58.9245 75.0703 58.4299C75.5796 58.2934 76.1996 58.2048 76.7015 58.2048C76.8529 58.2048 76.9931 58.2122 77.1223 58.2306C78.3181 58.382 79.4769 58.7879 81.5474 60.3417C85.2381 63.1134 101.558 77.3927 101.717 77.5329C101.728 77.5403 102.769 78.4408 102.695 79.9318C102.654 80.7659 102.193 81.5041 101.388 82.0171C100.691 82.46 99.975 82.6851 99.2479 82.6851C98.1555 82.6851 97.4062 82.1721 97.3546 82.1389C97.2955 82.0909 91.7042 76.9608 89.6448 75.2373C89.3163 74.9642 88.9989 74.7206 88.6778 74.7206C88.5043 74.7206 88.353 74.7944 88.2497 74.9236C87.9249 75.3222 88.2866 75.8758 88.7147 76.2375L95.2472 82.8069C95.2472 82.8069 96.0628 83.5672 96.1514 84.5747C96.2031 85.6635 95.6827 86.5751 94.6013 87.2837C93.83 87.793 93.0513 88.0476 92.2873 88.0476C91.2834 88.0476 90.5785 87.59 90.4235 87.483L89.4861 86.5603C87.7736 84.8737 86.0057 83.1317 84.7103 82.054C84.3929 81.7919 84.0571 81.5484 83.736 81.5484C83.5773 81.5484 83.4333 81.6074 83.3226 81.7255C83.175 81.8879 83.0717 82.1832 83.4407 82.674C83.5884 82.877 83.7692 83.0431 83.7692 83.0431L88.5339 88.3983C88.5708 88.4462 89.5156 89.5682 88.6409 90.6828L88.4711 90.8968C88.3272 91.0519 88.1759 91.1995 88.0282 91.325C87.2163 91.993 86.1312 92.0631 85.6994 92.0631C85.4669 92.0631 85.2492 92.0446 85.0536 92.0077C84.5848 91.9229 84.2674 91.7937 84.1124 91.6128L84.0534 91.5538C83.795 91.2844 81.3924 88.8301 79.4031 87.1729C79.1411 86.9515 78.8126 86.6784 78.4768 86.6784C78.3107 86.6784 78.1631 86.7448 78.045 86.8703C77.6537 87.3021 78.2442 87.9443 78.4952 88.1805L82.5586 92.6647C82.555 92.7053 82.5033 92.7975 82.4073 92.9378C82.2597 93.1408 81.7688 93.6316 80.2926 93.8162C80.1154 93.8383 79.9309 93.8494 79.7537 93.8494C78.2332 93.8494 76.6093 93.1112 75.7715 92.6684C76.1516 91.8638 76.3509 90.978 76.3509 90.0923C76.3509 86.7448 73.6346 84.0248 70.2871 84.0211C70.217 84.0211 70.1395 84.0211 70.0694 84.0248C70.1764 82.4969 69.9624 79.6034 66.9914 78.3301C66.1351 77.961 65.2826 77.7691 64.4559 77.7691C63.8063 77.7691 63.1826 77.8798 62.5958 78.1049C61.9794 76.9092 60.9571 76.0382 59.6285 75.5842C58.8903 75.3296 58.1596 75.2004 57.451 75.2004C56.2146 75.2004 55.0742 75.5658 54.0592 76.2854C53.0849 75.0749 51.616 74.3589 50.0696 74.3589C48.7151 74.3589 47.4123 74.9014 46.449 75.8573C45.1831 74.8904 40.1638 71.7016 26.7261 68.6494C26.0839 68.5055 24.6261 68.0884 23.7108 67.819C24.9693 61.7885 28.8039 56.2783 34.4876 51.7572L34.506 51.7498ZM59.4329 86.7301L59.2889 86.6009H59.1413C59.0232 86.6009 58.8977 86.6489 58.7316 86.767C58.0452 87.2505 57.3919 87.483 56.7239 87.483C56.3548 87.483 55.9784 87.4092 55.6019 87.2652C52.487 86.051 52.7306 83.1132 52.8856 82.2274C52.9077 82.0466 52.8634 81.91 52.749 81.8141L52.5276 81.6332L52.3209 81.8288C51.712 82.4157 50.9185 82.7331 50.0844 82.7331C48.3018 82.7331 46.8476 81.2826 46.8513 79.4963C46.8513 77.7137 48.3055 76.2633 50.0917 76.267C51.7046 76.267 53.0775 77.4775 53.2805 79.0904L53.3912 79.9577L53.8673 79.2232C53.919 79.1383 55.2292 77.1601 57.6318 77.1638C58.0894 77.1638 58.5619 77.2376 59.038 77.3853C60.9534 77.9684 61.2782 79.7067 61.3262 80.4301C61.3594 80.8508 61.662 80.873 61.7174 80.873C61.8835 80.873 62.0053 80.7696 62.0901 80.6774C62.4518 80.3009 63.2379 79.6735 64.4706 79.6735C65.0353 79.6735 65.6332 79.81 66.2532 80.0758C69.298 81.3823 67.9177 85.2501 67.903 85.2907C67.6409 85.9329 67.6299 86.2134 67.8771 86.3795L67.9952 86.4348H68.0838C68.2204 86.4348 68.3901 86.3758 68.6743 86.2798C69.0877 86.1359 69.7114 85.9218 70.2982 85.9218C72.5901 85.9476 74.4539 87.8151 74.4539 90.0775C74.4539 92.3657 72.5864 94.2258 70.2945 94.2258C68.0543 94.2258 66.2311 92.4801 66.1499 90.262C66.1425 90.0701 66.1241 89.5682 65.6959 89.5682C65.5225 89.5682 65.3675 89.6752 65.194 89.8339C64.6995 90.2916 64.072 90.7529 63.1567 90.7529C62.7397 90.7529 62.2894 90.657 61.8133 90.4613C59.4476 89.5018 59.4144 87.8779 59.5104 87.2246C59.5362 87.0512 59.5436 86.8703 59.4255 86.7264L59.4329 86.7301ZM74.2214 104.77C46.0763 104.77 23.2605 90.1735 23.2605 72.1703C23.2605 71.447 23.3122 70.7273 23.3823 70.015C23.6074 70.0703 25.844 70.6018 26.3053 70.7088C40.031 73.7573 44.5668 76.9276 45.3345 77.5292C45.0761 78.1529 44.9396 78.8246 44.9396 79.5037C44.9396 82.3419 47.2462 84.6522 50.0807 84.6522C50.3981 84.6522 50.7155 84.6227 51.0255 84.5636C51.4536 86.6526 52.8192 88.2359 54.9044 89.0478C55.5134 89.2803 56.1297 89.4021 56.7387 89.4021C57.1299 89.4021 57.5248 89.3541 57.9086 89.2582C58.2961 90.2362 59.1598 91.4578 61.101 92.2439C61.7801 92.517 62.4592 92.661 63.1199 92.661C63.6587 92.661 64.1865 92.565 64.6884 92.3805C65.6184 94.6429 67.8292 96.145 70.2945 96.145C71.9295 96.145 73.498 95.4807 74.6421 94.3033C75.6202 94.8496 77.6869 95.835 79.7759 95.8387C80.0453 95.8387 80.2963 95.8202 80.5546 95.7907C82.6288 95.5286 83.592 94.7167 84.0349 94.0856C84.1161 93.9749 84.1862 93.8568 84.249 93.735C84.7362 93.8752 85.275 93.9896 85.895 93.9933C87.0281 93.9933 88.1131 93.6058 89.2129 92.8086C90.2943 92.0299 91.062 90.9116 91.1727 89.9594C91.1727 89.9483 91.1727 89.9336 91.1764 89.9188C91.5418 89.9926 91.9145 90.0295 92.2873 90.0295C93.4535 90.0295 94.6013 89.6678 95.6975 88.9482C97.8122 87.5642 98.1776 85.752 98.1444 84.5673C98.5171 84.6448 98.8936 84.6854 99.27 84.6854C100.362 84.6854 101.44 84.357 102.462 83.7037C103.773 82.8659 104.562 81.5816 104.684 80.0905C104.762 79.0756 104.511 78.0496 103.979 77.1712C107.515 75.647 115.598 72.6981 125.116 70.5538C125.156 71.0927 125.179 71.6352 125.179 72.1814C125.179 90.1845 102.363 104.781 74.2214 104.781V104.77Z" fill="#0A0080"/>
</svg>
