<svg width="149" height="149" viewBox="0 0 149 149" fill="none" xmlns="http://www.w3.org/2000/svg">
<rect x="0.321777" y="0.32193" width="147.773" height="147.76" rx="34" fill="white"/>
<rect x="0.321777" y="0.32193" width="147.773" height="147.76" rx="34" stroke="#151515" stroke-opacity="0.5" stroke-width="0.643836" stroke-miterlimit="1.41" stroke-linejoin="round"/>
<path d="M120.708 46.5243C120.708 39.4482 115.291 33.0569 108.293 32.1438C101.296 31.2308 94.524 35.3395 92.2667 42.4156L85.2692 64.1003L71.9512 39.9047H46.2182C45.7667 40.8177 45.3153 41.7308 44.8638 43.1003L28.6114 96.7416C28.16 98.1112 27.7085 99.9373 27.7085 101.307C27.7085 108.383 33.126 114.774 40.1235 116.144C47.1211 117.513 54.3444 112.948 56.1502 105.872L62.6964 83.959L76.0143 108.155H102.199C102.65 107.242 103.102 106.329 103.102 104.959L119.806 50.8612C120.257 49.7199 120.708 47.8938 120.708 46.5243ZM42.3808 110.209C38.3177 110.209 34.9318 107.47 34.0289 103.589C33.126 99.709 35.3833 95.6003 38.9949 94.2308C42.6066 92.8612 46.8954 93.7743 49.1527 97.4264C51.41 101.079 50.7328 105.187 48.024 107.926C46.6697 109.296 44.4124 110.209 42.3808 110.209ZM75.5629 97.1982L64.9536 77.796L73.3056 50.8612L83.9148 70.0351L75.5629 97.1982ZM106.036 55.1982C101.973 55.1982 98.5871 52.459 97.6842 48.5786C96.7813 44.6982 99.0386 40.5895 102.65 39.2199C106.262 37.8503 110.551 38.7634 112.808 42.4156C115.517 45.6112 115.065 49.9482 112.357 52.6873C110.551 54.2851 108.293 55.1982 106.036 55.1982Z" fill="#5850EB"/>
</svg>
