<svg width="149" height="149" viewBox="0 0 149 149" fill="none" xmlns="http://www.w3.org/2000/svg">
<rect x="0.321777" y="0.321915" width="147.773" height="147.76" rx="34" fill="white"/>
<rect x="0.321777" y="0.321915" width="147.773" height="147.76" rx="34" stroke="#151515" stroke-opacity="0.5" stroke-width="0.643836" stroke-miterlimit="1.41" stroke-linejoin="round"/>
<path d="M52.7588 78.7804H56.0377L57.6094 59.4413L54.6974 56.8172L52.7588 78.7804Z" fill="#16325B"/>
<path d="M98.7205 34.8153C97.6355 34.1393 96.5106 33.5111 95.3698 32.9306L93.5508 55.2517H96.9255L98.7285 34.8153H98.7205Z" fill="#2774BA"/>
<path d="M95.6559 69.6147H92.377L90.7974 88.9538L93.7173 91.5779L95.6559 69.6147Z" fill="#2774BA"/>
<path d="M49.6965 113.58C50.7815 114.256 51.9063 114.884 53.0472 115.465L54.8662 93.1435H51.4915L49.6885 113.58H49.6965Z" fill="#16325B"/>
<path d="M102.631 37.5283L97.2694 103.283H89.0122C88.0868 103.283 87.1932 102.949 86.4992 102.352L74.2689 90.8777C73.5589 90.2097 73.1839 89.2634 73.2478 88.2933L74.2131 74.2025L61.9988 63.38L57.7227 117.54C62.8525 119.481 68.4051 120.554 74.2131 120.554C99.8941 120.554 120.709 99.8077 120.709 74.2105C120.709 59.2847 113.624 46.0209 102.631 37.5442V37.5283Z" fill="#2774BA"/>
<path d="M90.7024 30.8636C85.5726 28.9234 80.02 27.8499 74.212 27.8499C48.523 27.8499 27.7085 48.5964 27.7085 74.1936C27.7085 89.1194 34.7929 102.383 45.7865 110.86L51.1477 45.1055H59.4049C60.3304 45.1055 61.2239 45.4395 61.918 46.0359L74.1482 57.5105C74.8582 58.1785 75.2332 59.1248 75.1694 60.0949L74.204 74.1857L86.4183 85.0082L90.7024 30.8636Z" fill="#16325A"/>
</svg>
