<svg width="149" height="149" viewBox="0 0 149 149" fill="none" xmlns="http://www.w3.org/2000/svg">
<rect x="0.321777" y="0.321899" width="147.773" height="147.76" rx="34" fill="white"/>
<rect x="0.321777" y="0.321899" width="147.773" height="147.76" rx="34" stroke="#151515" stroke-opacity="0.5" stroke-width="0.643836" stroke-miterlimit="1.41" stroke-linejoin="round"/>
<path d="M96.6772 93.62C99.2289 93.6201 101.462 94.5504 103.375 96.411C105.289 98.2716 106.247 100.504 106.247 103.109C106.247 104.864 105.794 106.472 104.89 107.934C104.013 109.37 102.857 110.526 101.421 111.403C99.9862 112.254 98.4048 112.679 96.6772 112.679C94.0457 112.679 91.7862 111.748 89.8989 109.888C88.0382 108 87.1079 105.741 87.1079 103.109C87.108 100.504 88.0383 98.2717 89.8989 96.411C91.7862 94.5504 94.0457 93.62 96.6772 93.62ZM67.5298 50.3983H79.0522V63.1571H67.5298V92.8221C67.5298 94.3904 67.7691 95.6139 68.2476 96.4911C68.726 97.3414 69.3903 97.9395 70.2407 98.285C71.1179 98.6306 72.128 98.8036 73.271 98.8036C74.0684 98.8036 74.8661 98.7373 75.6636 98.6044C76.461 98.4449 77.0723 98.3247 77.4976 98.245L80.1694 110.885C79.3188 111.15 78.1223 111.456 76.5806 111.802C75.0388 112.174 73.1648 112.4 70.9585 112.479C66.865 112.639 63.2763 112.094 60.1929 110.845C57.1361 109.595 54.7573 107.655 53.0562 105.023C51.355 102.392 50.5179 99.0692 50.5444 95.0555V63.1571H42.1704V50.3983H50.5444V35.7255H67.5298V50.3983Z" fill="black"/>
</svg>
