<svg width="149" height="149" viewBox="0 0 149 149" fill="none" xmlns="http://www.w3.org/2000/svg">
<rect x="0.321777" y="0.321915" width="147.773" height="147.76" rx="34" fill="white"/>
<rect x="0.321777" y="0.321915" width="147.773" height="147.76" rx="34" stroke="#151515" stroke-opacity="0.5" stroke-width="0.643836" stroke-miterlimit="1.41" stroke-linejoin="round"/>
<path d="M46.2054 79.9675C49.3423 79.9675 51.3874 78.7948 52.5312 77.4025L52.5543 79.1934C52.5543 82.0299 51.0581 83.6764 48.47 83.6764C46.8755 83.6764 46.2516 83.1507 45.7779 82.0588H39.6542C39.9546 83.3066 40.6248 85.0224 42.069 86.3916C43.7386 87.9629 46.0321 88.7833 48.8917 88.7833C51.7051 88.7833 54.0737 87.8647 55.7375 86.1432C57.3319 84.4736 58.2043 82.209 58.2043 79.5458V59.6208H52.381V70.2044C52.381 71.4522 52.0344 72.4227 51.3585 73.116C51.3354 73.1391 51.3065 73.1911 51.2603 73.2142C51.2372 73.2373 51.1852 73.2893 51.1621 73.3124L51.139 73.3355C51.087 73.3586 51.0639 73.4106 51.0119 73.4337C50.9599 73.4568 50.9368 73.4857 50.8848 73.5319C50.2089 74.0287 49.3134 74.306 48.2216 74.306C46.5289 74.306 45.5063 73.6359 44.9575 72.5383C44.634 71.8912 44.4838 71.094 44.4838 70.2217V59.6439H38.7588V71.0767C38.8108 76.4089 41.6473 79.9675 46.2054 79.9675Z" fill="#0E151C"/>
<path d="M70.0426 63.6676C63.7919 63.6676 61.3251 66.6832 60.8282 70.8889H66.432C66.9577 69.1443 68.1015 68.4741 69.7942 68.4741C72.0126 68.4741 72.9311 69.67 72.9311 71.8364V72.6856H67.7029C62.3765 72.6856 60.2043 75.1986 60.2043 78.8612C60.2043 82.8185 62.8444 84.7365 66.3337 84.7365C69.748 84.7365 72.0357 83.8873 72.9311 80.4557V84.3148H78.7081V71.7844C78.7081 66.6312 76.172 63.6676 70.0426 63.6676ZM72.9311 76.5678C72.9311 78.6071 71.3135 80.0571 68.8468 80.0571C66.6284 80.0571 65.86 79.0865 65.86 77.8387C65.86 76.7411 66.8826 75.9727 68.5752 75.9727H72.908V76.5678H72.9311Z" fill="#0E151C"/>
<path d="M80.7081 61.1517V87.2524H86.5371V61.1517H80.7081Z" fill="#0E151C"/>
<path d="M99.6001 63.6732C96.8098 63.5461 94.0946 64.5224 92.0264 66.4115C89.9583 68.3063 88.7393 70.9175 88.5891 73.7078L88.5371 84.2451L99.0744 84.7419C100.444 84.7419 101.836 84.4935 103.107 83.9447C104.378 83.419 105.545 82.6506 106.544 81.6801C107.515 80.7096 108.312 79.5368 108.838 78.2659C109.363 76.9949 109.658 75.6258 109.658 74.2335C109.681 71.5183 108.635 68.9013 106.769 66.9372C104.88 64.9672 102.315 63.7945 99.6001 63.6732ZM102.361 77.4687C101.512 78.341 100.345 78.8378 99.1206 78.8609L94.3661 78.6356L94.3892 73.8522C94.4643 72.6795 94.9901 71.5588 95.8566 70.7615C96.7289 69.9643 97.8497 69.5137 99.0455 69.5137C99.1206 69.5137 99.1957 69.5137 99.2708 69.5137C100.467 69.5657 101.61 70.0856 102.437 70.9579C103.257 71.8303 103.731 72.9972 103.731 74.1931C103.708 75.4294 103.211 76.5963 102.361 77.4687Z" fill="#0E151C"/>
</svg>
