<svg width="375" height="812" xmlns="http://www.w3.org/2000/svg">
  <!-- Phone Frame -->
  <rect width="375" height="812" fill="#1f2937" rx="50"/>
  <rect x="10" y="10" width="355" height="792" fill="#000000" rx="45"/>

  <!-- Status Bar -->
  <rect x="30" y="30" width="315" height="44" fill="#000000"/>
  <text x="50" y="58" font-family="Arial, sans-serif" font-size="14" fill="#ffffff" font-weight="bold">8:09</text>
  <rect x="280" y="45" width="60" height="22" fill="#ffffff" rx="11"/>

  <!-- Screen Content -->
  <rect x="30" y="90" width="315" height="692" fill="#ffffff" rx="20"/>

  <!-- Header -->
  <text x="50" y="130" font-family="Arial, sans-serif" font-size="18" fill="#111827" font-weight="bold">Nueva venta</text>
  <circle cx="310" cy="122" r="15" fill="#3b82f6"/>

  <!-- Toggle Buttons -->
  <rect x="50" y="150" width="120" height="40" fill="#111827" rx="8"/>
  <text x="90" y="175" font-family="Arial, sans-serif" font-size="14" fill="#ffffff" text-anchor="middle" font-weight="bold">Monto</text>
  <rect x="185" y="150" width="120" height="40" fill="#f3f4f6" rx="8"/>
  <text x="245" y="175" font-family="Arial, sans-serif" font-size="14" fill="#111827" text-anchor="middle">Productos</text>

  <!-- Amount Display -->
  <text x="187.5" y="260" font-family="Arial, sans-serif" font-size="56" fill="#d1d5db" text-anchor="middle" font-weight="bold">$0.00</text>
  <text x="187.5" y="290" font-family="Arial, sans-serif" font-size="14" fill="#9ca3af" text-anchor="middle">Monto a cobrar</text>

  <!-- Numpad -->
  <!-- Row 1 -->
  <rect x="70" y="330" width="70" height="70" fill="#f9fafb" rx="12"/>
  <text x="105" y="375" font-family="Arial, sans-serif" font-size="28" fill="#111827" text-anchor="middle" font-weight="bold">1</text>

  <rect x="152.5" y="330" width="70" height="70" fill="#f9fafb" rx="12"/>
  <text x="187.5" y="375" font-family="Arial, sans-serif" font-size="28" fill="#111827" text-anchor="middle" font-weight="bold">2</text>

  <rect x="235" y="330" width="70" height="70" fill="#f9fafb" rx="12"/>
  <text x="270" y="375" font-family="Arial, sans-serif" font-size="28" fill="#111827" text-anchor="middle" font-weight="bold">3</text>

  <!-- Row 2 -->
  <rect x="70" y="415" width="70" height="70" fill="#f9fafb" rx="12"/>
  <text x="105" y="460" font-family="Arial, sans-serif" font-size="28" fill="#111827" text-anchor="middle" font-weight="bold">4</text>

  <rect x="152.5" y="415" width="70" height="70" fill="#f9fafb" rx="12"/>
  <text x="187.5" y="460" font-family="Arial, sans-serif" font-size="28" fill="#111827" text-anchor="middle" font-weight="bold">5</text>

  <rect x="235" y="415" width="70" height="70" fill="#f9fafb" rx="12"/>
  <text x="270" y="460" font-family="Arial, sans-serif" font-size="28" fill="#111827" text-anchor="middle" font-weight="bold">6</text>

  <!-- Row 3 -->
  <rect x="70" y="500" width="70" height="70" fill="#f9fafb" rx="12"/>
  <text x="105" y="545" font-family="Arial, sans-serif" font-size="28" fill="#111827" text-anchor="middle" font-weight="bold">7</text>

  <rect x="152.5" y="500" width="70" height="70" fill="#f9fafb" rx="12"/>
  <text x="187.5" y="545" font-family="Arial, sans-serif" font-size="28" fill="#111827" text-anchor="middle" font-weight="bold">8</text>

  <rect x="235" y="500" width="70" height="70" fill="#f9fafb" rx="12"/>
  <text x="270" y="545" font-family="Arial, sans-serif" font-size="28" fill="#111827" text-anchor="middle" font-weight="bold">9</text>

  <!-- Row 4 -->
  <rect x="70" y="585" width="70" height="70" fill="#f9fafb" rx="12"/>
  <text x="105" y="630" font-family="Arial, sans-serif" font-size="32" fill="#111827" text-anchor="middle" font-weight="bold">+</text>

  <rect x="152.5" y="585" width="70" height="70" fill="#f9fafb" rx="12"/>
  <text x="187.5" y="630" font-family="Arial, sans-serif" font-size="28" fill="#111827" text-anchor="middle" font-weight="bold">0</text>

  <rect x="235" y="585" width="70" height="70" fill="#f9fafb" rx="12"/>
  <text x="270" y="628" font-family="Arial, sans-serif" font-size="24" fill="#111827" text-anchor="middle" font-weight="bold">⌫</text>

  <!-- Charge Button -->
  <rect x="50" y="680" width="275" height="60" fill="#ea580c" rx="12"/>
  <text x="187.5" y="715" font-family="Arial, sans-serif" font-size="18" fill="#ffffff" text-anchor="middle" font-weight="bold">Cobrar $0.00</text>

  <!-- Home Indicator -->
  <rect x="137.5" y="770" width="100" height="5" fill="#ffffff" rx="2.5" opacity="0.5"/>
</svg>
